<svg width="500" height="500" viewBox="0 0 500 500" fill="none" xmlns="http://www.w3.org/2000/svg">
    <g> 
        <path d="M249.984 441.958C243.979 441.958 238.823 438.646 233.891 435.411C230.271 433.026 226.807 430.87 223.729 430.406C220.495 429.943 216.49 431.177 212.255 432.411C206.635 434.104 200.859 435.797 195.24 434.182C189.542 432.484 185.536 427.943 181.687 423.479C178.839 420.167 176.219 417.083 173.292 415.776C170.37 414.469 166.208 414.469 161.745 414.469C155.891 414.469 149.807 414.547 144.88 411.385C139.875 408.229 137.411 402.687 135.026 397.375C133.255 393.37 131.557 389.672 129.094 387.594C126.63 385.516 122.703 384.359 118.469 383.208C112.849 381.589 106.995 379.974 103.068 375.505C99.2187 371.115 98.3698 365.109 97.6042 359.333C96.9844 355.026 96.4479 350.943 94.6771 348.25C92.9844 345.552 89.4427 343.396 85.7448 341.089C80.7396 338.005 75.5781 334.771 73.1146 329.385C70.651 324.068 71.5781 318.141 72.4219 312.443C73.1146 308.13 73.7344 304.052 72.8073 300.891C71.8854 297.891 69.1875 294.807 66.3385 291.578C62.4114 287.187 58.4114 282.646 57.5625 276.714C56.7135 271.016 59.2552 265.625 61.7187 260.391C63.5677 256.385 65.3385 252.615 65.3385 249.302C65.3385 245.99 63.5677 242.219 61.7187 238.214C59.2552 232.979 56.7135 227.589 57.5625 221.891C58.4114 216.036 62.4896 211.495 66.3385 207.031C69.1875 203.797 71.9635 200.714 72.8073 197.714C73.7344 194.635 73.1146 190.552 72.4219 186.161C71.5781 180.385 70.651 174.458 73.1146 169.224C75.5781 163.833 80.7396 160.677 85.7448 157.521C89.4427 155.208 92.9062 153.052 94.6771 150.359C96.4479 147.661 96.9844 143.583 97.6042 139.271C98.3698 133.495 99.2187 127.568 103.068 123.099C106.922 118.708 112.771 117.016 118.469 115.401C122.703 114.245 126.708 113.089 129.094 111.01C131.484 108.932 133.177 105.156 135.026 101.234C137.411 95.9167 139.875 90.375 144.88 87.2188C149.807 84.0625 155.891 84.1354 161.745 84.1354C166.13 84.1354 170.292 84.2135 173.292 82.8281C176.219 81.5208 178.839 78.4375 181.687 75.1302C185.536 70.6615 189.464 66.0417 195.24 64.4271C200.859 62.8073 206.635 64.5052 212.255 66.1979C216.49 67.5052 220.495 68.6615 223.729 68.1979C226.807 67.7344 230.271 65.5052 233.891 63.1927C238.818 59.9583 243.979 56.651 249.984 56.651C255.99 56.651 261.151 59.9583 266.078 63.1927C269.698 65.5833 273.161 67.7344 276.245 68.1979C279.474 68.6615 283.479 67.4271 287.714 66.1979C293.339 64.5052 299.109 62.8073 304.734 64.4271C310.432 66.1198 314.432 70.6615 318.286 75.1302C321.135 78.4375 323.75 81.5208 326.677 82.8281C329.604 84.1354 333.76 84.1354 338.229 84.1354C344.078 84.0625 350.161 84.0625 355.089 87.2188C360.094 90.375 362.557 95.9167 364.948 101.234C366.719 105.234 368.411 108.932 370.875 111.01C373.339 113.089 377.266 114.245 381.5 115.401C387.12 117.016 392.974 118.635 396.901 123.099C400.75 127.49 401.599 133.495 402.37 139.271C402.984 143.583 403.521 147.661 405.297 150.359C406.99 153.052 410.531 155.208 414.224 157.521C419.229 160.599 424.391 163.833 426.854 169.224C429.318 174.536 428.396 180.464 427.547 186.161C426.854 190.474 426.24 194.557 427.161 197.714C428.089 200.714 430.781 203.797 433.63 207.031C437.557 211.417 441.562 215.964 442.406 221.891C443.255 227.589 440.714 232.979 438.25 238.214C436.401 242.219 434.63 245.99 434.63 249.302C434.63 252.615 436.401 256.385 438.25 260.391C440.714 265.625 443.255 271.016 442.406 276.714C441.562 282.568 437.479 287.109 433.63 291.578C430.781 294.807 428.01 297.891 427.161 300.891C426.24 303.974 426.854 308.052 427.547 312.443C428.396 318.219 429.318 324.146 426.854 329.385C424.391 334.771 419.229 337.932 414.224 341.089C410.531 343.396 407.068 345.552 405.297 348.25C403.521 350.943 402.984 355.026 402.37 359.333C401.599 365.109 400.75 371.042 396.901 375.505C393.052 379.896 387.198 381.589 381.5 383.208C377.266 384.359 373.26 385.516 370.875 387.594C368.49 389.672 366.797 393.448 364.948 397.375C362.557 402.687 360.094 408.229 355.089 411.385C350.161 414.547 344.078 414.469 338.229 414.469C333.839 414.469 329.682 414.391 326.677 415.776C323.75 417.083 321.135 420.167 318.286 423.479C314.432 427.943 310.505 432.562 304.734 434.182C299.109 435.797 293.339 434.104 287.714 432.411C283.479 431.099 279.474 429.943 276.245 430.406C273.161 430.87 269.698 433.104 266.078 435.411C261.151 438.646 255.99 441.958 249.984 441.958ZM222.187 422.245C223.036 422.245 223.958 422.323 224.807 422.401C229.734 423.094 234.047 425.943 238.281 428.635C242.437 431.333 246.365 433.87 249.906 433.87C253.448 433.87 257.375 431.333 261.536 428.635C265.771 425.943 270.083 423.094 275.01 422.401C280.016 421.708 285.099 423.167 290.026 424.708C294.646 426.094 299.109 427.406 302.344 426.479C305.734 425.479 308.734 422.016 311.969 418.24C315.281 414.391 318.672 410.464 323.214 408.464C327.833 406.385 333.068 406.385 338.151 406.458C343 406.458 347.62 406.536 350.547 404.687C353.474 402.839 355.396 398.604 357.401 394.219C359.479 389.599 361.635 384.901 365.406 381.589C369.182 378.354 374.266 376.891 379.193 375.505C383.891 374.198 388.354 372.885 390.667 370.349C392.974 367.729 393.589 363.187 394.208 358.411C394.901 353.406 395.594 348.25 398.365 344.01C401.057 339.854 405.526 337.083 409.839 334.385C413.995 331.771 417.922 329.307 419.385 326.151C420.849 323.068 420.156 318.526 419.385 313.75C418.615 308.745 417.844 303.589 419.229 298.734C420.62 294.042 424.083 290.115 427.396 286.417C430.625 282.719 433.708 279.255 434.245 275.792C434.708 272.479 432.781 268.401 430.703 264.01C428.547 259.391 426.318 254.615 426.318 249.531C426.318 244.453 428.547 239.677 430.703 235.057C432.781 230.745 434.708 226.589 434.245 223.276C433.708 219.812 430.625 216.349 427.396 212.651C424.083 208.88 420.62 205.026 419.229 200.333C417.771 195.479 418.615 190.323 419.385 185.318C420.078 180.542 420.771 176 419.385 172.917C417.922 169.76 413.995 167.297 409.839 164.682C405.526 161.984 401.135 159.214 398.365 155.057C395.672 150.818 394.901 145.661 394.208 140.656C393.516 135.88 392.896 131.339 390.667 128.719C388.354 126.104 383.964 124.87 379.193 123.563C374.266 122.177 369.26 120.714 365.406 117.479C361.635 114.245 359.479 109.469 357.401 104.849C355.396 100.385 353.552 96.2292 350.547 94.3802C347.62 92.5313 343 92.5313 338.151 92.6094C333.068 92.6094 327.755 92.6823 323.214 90.6042C318.672 88.526 315.281 84.599 311.969 80.8281C308.812 77.1302 305.734 73.5885 302.344 72.5885C299.036 71.6615 294.646 72.974 290.026 74.3594C285.099 75.8229 280.016 77.3594 275.01 76.6667C270.083 75.974 265.771 73.125 261.536 70.4323C257.375 67.7344 253.448 65.1979 249.906 65.1979C246.365 65.1979 242.437 67.7344 238.281 70.4323C234.047 73.125 229.734 75.974 224.807 76.6667C219.724 77.3594 214.719 75.901 209.792 74.3594C205.172 72.974 200.703 71.6615 197.469 72.5885C194.083 73.5885 191.078 77.0521 187.844 80.8281C184.536 84.6771 181.146 88.6042 176.604 90.6042C171.984 92.6823 166.75 92.6823 161.667 92.6094C156.818 92.6094 152.198 92.5313 149.271 94.3802C146.344 96.2292 144.417 100.464 142.417 104.849C140.339 109.469 138.182 114.167 134.406 117.479C130.635 120.714 125.552 122.177 120.625 123.563C115.927 124.87 111.464 126.182 109.151 128.719C106.844 131.339 106.224 135.88 105.609 140.656C104.917 145.661 104.224 150.818 101.453 155.057C98.7552 159.214 94.2917 161.984 89.9792 164.682C85.8229 167.297 81.8958 169.76 80.4323 172.917C78.9687 176 79.6614 180.542 80.4323 185.318C81.2031 190.323 81.9687 195.479 80.5833 200.333C79.1979 205.026 75.7344 208.953 72.4219 212.651C69.1875 216.349 66.1094 219.812 65.5729 223.276C65.1094 226.589 67.0312 230.667 69.1146 235.057C71.2708 239.677 73.5 244.453 73.5 249.531C73.5 254.615 71.2708 259.391 69.1146 264.01C67.0312 268.323 65.1094 272.479 65.5729 275.792C66.1094 279.255 69.1875 282.719 72.4219 286.417C75.7344 290.187 79.1979 294.042 80.5833 298.734C82.0469 303.589 81.2031 308.745 80.4323 313.75C79.7396 318.526 79.0469 323.068 80.4323 326.151C81.8958 329.307 85.8229 331.771 89.9792 334.385C94.2917 337.083 98.6823 339.854 101.453 344.01C104.146 348.25 104.917 353.406 105.609 358.411C106.302 363.187 106.922 367.729 109.151 370.349C111.464 372.964 115.849 374.198 120.625 375.505C125.552 376.891 130.557 378.354 134.406 381.589C138.182 384.823 140.339 389.599 142.417 394.219C144.417 398.682 146.266 402.839 149.271 404.687C152.198 406.536 156.818 406.536 161.667 406.458C166.75 406.458 172.062 406.385 176.604 408.464C181.146 410.542 184.536 414.469 187.844 418.24C191.078 421.937 194.083 425.479 197.469 426.479C200.781 427.406 205.172 426.094 209.792 424.708C213.87 423.479 218.031 422.245 222.187 422.245Z" fill="#FF66C4"/>
        <path d="M426.448 250.016C426.448 241.286 435.38 232.036 434.203 223.672C432.943 215.089 421.792 208.724 419.354 200.583C416.917 192.297 422.828 180.901 419.281 173.13C415.661 165.286 403.104 162.328 398.453 155.151C393.724 147.896 396.234 135.318 390.552 128.88C384.865 122.37 372.01 123.031 365.437 117.411C358.937 111.786 357.755 99.0573 350.443 94.3958C343.203 89.7344 331.021 93.9531 323.115 90.4011C315.286 86.849 310.557 74.9323 302.214 72.4896C294.016 70.125 283.526 77.599 274.885 76.3386C266.391 75.1563 258.417 65.0156 249.625 65.0156C240.833 65.0156 232.859 75.1563 224.437 76.3386C215.797 77.599 205.307 70.125 197.109 72.4896C188.766 74.9323 183.964 86.849 176.208 90.4011C168.307 93.9531 156.12 89.8073 148.88 94.3958C141.568 99.0573 140.385 111.786 133.885 117.411C127.385 123.031 114.464 122.37 108.776 128.88C103.089 135.318 105.599 147.896 100.87 155.151C96.2187 162.328 83.6614 165.286 80.0417 173.13C76.5 180.901 82.4062 192.224 79.9687 200.583C77.5312 208.724 66.3802 215.089 65.125 223.672C63.9427 232.036 72.8802 241.286 72.8802 250.016C72.8802 258.75 63.9427 268 65.125 276.359C66.3802 284.943 77.5312 291.307 79.9687 299.448C82.4062 307.74 76.5 319.135 80.0417 326.901C83.6614 334.745 96.2187 337.708 100.87 344.885C105.599 352.135 103.089 364.719 108.776 371.156C114.464 377.667 127.312 377 133.885 382.625C140.385 388.25 141.568 400.979 148.88 405.641C156.12 410.302 168.307 406.083 176.208 409.635C184.036 413.187 188.766 425.099 197.109 427.542C205.307 429.911 215.797 422.437 224.437 423.693C232.859 424.88 240.833 435.016 249.625 435.016C258.417 435.016 266.391 424.88 274.812 423.693C283.453 422.437 293.943 429.911 302.141 427.542C310.484 425.099 315.286 413.187 323.042 409.635C330.943 406.083 343.13 410.229 350.37 405.641C357.682 400.979 358.865 388.25 365.365 382.625C371.865 377 384.786 377.667 390.474 371.156C396.161 364.719 393.651 352.135 398.38 344.885C403.031 337.708 415.589 334.745 419.208 326.901C422.75 319.135 416.844 307.813 419.281 299.448C421.719 291.307 432.87 284.943 434.125 276.359C435.38 268 426.448 258.75 426.448 250.016Z" fill="white"/>
    </g>
</svg>
