<svg width="24" height="26" viewBox="0 0 24 26" fill="none" xmlns="http://www.w3.org/2000/svg">
    <path d="M10.8427 0.671248L5.50933 10.0046C5.39352 10.2073 5.33298 10.4369 5.33377 10.6704C5.33456 10.9039 5.39665 11.1331 5.51383 11.3351C5.63101 11.537 5.79916 11.7047 6.00148 11.8212C6.2038 11.9378 6.43317 11.9992 6.66666 11.9992H17.3333C17.5668 11.9992 17.7962 11.9378 17.9985 11.8212C18.2008 11.7047 18.369 11.537 18.4862 11.3351C18.6033 11.1331 18.6654 10.9039 18.6662 10.6704C18.667 10.4369 18.6065 10.2073 18.4907 10.0046L13.1573 0.671248C13.0407 0.467316 12.8722 0.297831 12.669 0.179956C12.4657 0.0620808 12.2349 0 12 0C11.7651 0 11.5343 0.0620808 11.331 0.179956C11.1278 0.297831 10.9593 0.467316 10.8427 0.671248Z" fill="#00C4CC"/>
    <path d="M18.6667 14.6659C19.7101 14.6659 20.7307 14.972 21.6019 15.5463C22.4731 16.1206 23.1568 16.9378 23.5681 17.8968C23.9795 18.8558 24.1005 19.9144 23.9161 20.9414C23.7318 21.9685 23.2502 22.9189 22.531 23.675C21.8119 24.4311 20.8867 24.9596 19.8701 25.195C18.8536 25.4305 17.7903 25.3626 16.8119 24.9997C15.8336 24.6368 14.9832 23.9949 14.3661 23.1535C13.7489 22.3121 13.3922 21.3081 13.34 20.2659L13.3333 19.9992L13.34 19.7326C13.4084 18.366 13.9995 17.0779 14.9909 16.1349C15.9824 15.1918 17.2983 14.6659 18.6667 14.6659Z" fill="#6420FF"/>
    <path d="M8 14.6659H2.66667C1.95942 14.6659 1.28115 14.9469 0.781048 15.447C0.280951 15.9471 0 16.6253 0 17.3326V22.6659C0 23.3732 0.280951 24.0514 0.781048 24.5515C1.28115 25.0516 1.95942 25.3326 2.66667 25.3326H8C8.70724 25.3326 9.38552 25.0516 9.88562 24.5515C10.3857 24.0514 10.6667 23.3732 10.6667 22.6659V17.3326C10.6667 16.6253 10.3857 15.9471 9.88562 15.447C9.38552 14.9469 8.70724 14.6659 8 14.6659Z" fill="#7D2AE7"/>
</svg>
